<?xml version="1.0" encoding="utf-8"?>
<!-- Generator: Adobe Illustrator 22.0.0, SVG Export Plug-In . SVG Version: 6.00 Build 0)  -->
<svg version="1.1" id="Capa_1" xmlns="http://www.w3.org/2000/svg" xmlns:xlink="http://www.w3.org/1999/xlink" x="0px" y="0px"
	 viewBox="0 0 194 193.3" style="enable-background:new 0 0 194 193.3;" xml:space="preserve">
<style type="text/css">
	.st0{fill:none;}
	.st1{fill:#FF6600;}
	.st2{fill:#262D33;}
</style>
<rect x="28.2" y="78.6" transform="matrix(0.7071 -0.7071 0.7071 0.7071 -54.7686 60.9365)" class="st0" width="35.9" height="35.9"/>
<rect x="79.6" y="27.3" transform="matrix(0.7071 -0.7071 0.7071 0.7071 -3.4086 82.2095)" class="st0" width="35.9" height="35.9"/>
<rect x="79.6" y="130" transform="matrix(0.7071 -0.7071 0.7071 0.7071 -76.0425 112.297)" class="st0" width="35.9" height="35.9"/>
<rect x="130.9" y="78.6" transform="matrix(0.7071 -0.7071 0.7071 0.7071 -24.6821 133.5707)" class="st0" width="35.9" height="35.9"/>
<rect x="113.3" y="72" transform="matrix(0.7071 -0.7071 0.7071 0.7071 -17.3876 115.96)" class="st1" width="35.9" height="13.9"/>
<rect x="62" y="123.4" transform="matrix(0.7071 -0.7071 0.7071 0.7071 -68.7473 94.6832)" class="st1" width="35.9" height="13.9"/>
<rect x="97.2" y="55.9" transform="matrix(0.7071 -0.7071 0.7071 0.7071 -10.7028 99.8212)" class="st1" width="35.9" height="13.9"/>
<rect x="45.8" y="107.3" transform="matrix(0.7071 -0.7071 0.7071 0.7071 -62.0628 78.546)" class="st1" width="35.9" height="13.9"/>
<rect x="56.8" y="61" transform="matrix(0.7071 -0.7071 0.7071 0.7071 -37.1578 68.23)" class="st1" width="13.9" height="35.9"/>
<rect x="73" y="44.9" transform="matrix(0.7071 -0.7071 0.7071 0.7071 -21.0192 74.9144)" class="st1" width="13.9" height="35.9"/>
<rect x="124.3" y="96.2" transform="matrix(0.7071 -0.7071 0.7071 0.7071 -42.293 126.2745)" class="st1" width="13.9" height="35.9"/>
<rect x="108.2" y="112.4" transform="matrix(0.7071 -0.7071 0.7071 0.7071 -58.4316 119.5898)" class="st1" width="13.9" height="35.9"/>
<polygon class="st2" points="132.8,157.8 122.9,147.9 97.5,173.3 72.1,147.9 62.3,157.8 97.5,193 "/>
<polygon class="st2" points="46.2,71.2 36.4,61.4 1.1,96.6 36.4,131.8 46.2,122 20.8,96.6 "/>
<polygon class="st2" points="158.7,61.4 148.9,71.2 174.3,96.6 148.9,122 158.7,131.8 193.9,96.6 "/>
<polygon class="st2" points="122.9,45.2 132.8,35.4 97.5,0.2 62.3,35.4 72.1,45.2 97.5,19.8 "/>
</svg>
